Coordinates
version=1
nRows=16
nColumns=36
inDegrees=yes

Units are S.I. units (second, meters, Newtons, ...)
If the header above contains a line with 'inDegrees', this indicates whether rotational values are in degrees (yes) or radians (no).

endheader
time	pelvis_tilt	pelvis_list	pelvis_rotation	pelvis_tx	pelvis_ty	pelvis_tz	hip_flexion_r	hip_adduction_r	hip_rotation_r	knee_angle_r	knee_angle_r_beta	ankle_angle_r	subtalar_angle_r	mtp_angle_r	hip_flexion_l	hip_adduction_l	hip_rotation_l	knee_angle_l	knee_angle_l_beta	ankle_angle_l	subtalar_angle_l	mtp_angle_l	lumbar_extension	lumbar_bending	lumbar_rotation	arm_flex_r	arm_add_r	arm_rot_r	elbow_flex_r	pro_sup_r	arm_flex_l	arm_add_l	arm_rot_l	elbow_flex_l	pro_sup_l
      1.65000000	    -21.01695948	     -0.47759254	      2.68741520	     -0.42906161	      0.66610364	     -0.67798079	     88.61648715	    -19.67563403	      1.89119409	     86.11060052	      1.50291350	     26.60083575	      2.39418931	     -7.49801182	     88.50672541	    -12.27391082	     -1.03132449	     85.48650594	      1.49202099	     25.60984152	      1.27263141	     -7.49801182	    -32.98352082	     -1.52120575	     -0.68676049	    101.87535876	    -30.19836332	     51.57526046	    103.60567141	     86.59807617	     96.46335948	    -28.56502657	     40.96821710	    105.44388143	    103.44739405
      1.66000000	    -20.72222139	     -0.50290761	      2.75537841	     -0.42517945	      0.67544421	     -0.67854469	     86.84762095	    -19.71492773	      1.42247637	     84.76034056	      1.47934702	     26.55583690	      2.32433117	     -7.49804380	     86.83253843	    -12.31224015	     -1.41375385	     84.14358030	      1.46858252	     25.61286913	      1.45010943	     -7.49804380	    -32.05840297	     -1.51828717	     -0.75046067	     98.48201871	    -30.48832944	     50.54987576	    104.41145164	     86.62393540	     93.22793395	    -28.86265564	     39.99740008	    106.04313858	    103.53715447
      1.67000000	    -20.24903101	     -0.55152040	      2.84797875	     -0.42133559	      0.68550985	     -0.67913330	     84.78514674	    -19.72910727	      0.91273855	     83.25596746	      1.45309075	     26.47210247	      2.24523089	     -7.49806357	     84.91081475	    -12.29189063	     -1.74026811	     82.64626063	      1.44244936	     25.54541232	      1.57136691	     -7.49806357	    -31.37099031	     -1.46695629	     -0.78214312	     95.30775228	    -30.80593629	     49.72697297	    105.10075646	     86.66149477	     90.16222000	    -29.18103790	     39.26851072	    106.60911702	    103.59233447
      1.68000000	    -19.81429493	     -0.65365181	      2.99991932	     -0.41734218	      0.69545309	     -0.68007035	     82.76021305	    -19.81010479	      0.34058907	     81.76987438	      1.42715354	     26.30262403	      2.09192473	     -7.49808716	     83.06396391	    -12.13209105	     -1.92310598	     81.18661649	      1.41697377	     25.40399075	      1.68826201	     -7.49808716	    -30.46273166	     -1.30230179	     -0.86721814	     91.68713619	    -30.99312784	     48.50462404	    105.68016481	     86.66498664	     86.66270623	    -29.26080459	     38.09247557	    107.05317962	    103.61796566
      1.69000000	    -19.29543566	     -0.71732877	      3.17321305	     -0.41318938	      0.70565966	     -0.68113001	     80.62834695	    -19.92045010	     -0.22259567	     80.24113976	      1.40047208	     26.07956335	      1.95929520	     -7.49811187	     81.09168608	    -11.92239361	     -2.15273377	     79.67162244	      1.39053213	     25.23122263	      1.76258265	     -7.49811187	    -29.59924697	     -1.15886120	     -0.96105158	     88.20244970	    -31.20151948	     47.52449153	    106.14399964	     86.66358032	     83.17154190	    -29.19180653	     36.95654645	    107.35290676	    103.64917261
      1.70000000	    -18.61564739	     -0.75193577	      3.27092277	     -0.40882269	      0.71648726	     -0.68201939	     78.25567499	    -19.91952572	     -0.78871834	     78.59984203	      1.37182604	     25.88198291	      1.81159911	     -7.49814069	     78.86149491	    -11.78114951	     -2.43308781	     78.07041787	      1.36258584	     25.07158229	      1.78059501	     -7.49814069	    -28.90236469	     -1.07896229	     -0.96852000	     84.77443711	    -31.38838415	     46.62009868	    106.52353515	     86.67678251	     79.66610740	    -28.98047607	     35.75506190	    107.56015829	    103.70023418
      1.71000000	    -17.69485865	     -0.74692565	      3.32484207	     -0.40444054	      0.72809576	     -0.68271567	     75.55746962	    -19.84058484	     -1.35270403	     76.81212677	      1.34062452	     25.69955416	      1.72200983	     -7.49816012	     76.27226209	    -11.65304097	     -2.71294111	     76.31606351	      1.33196658	     24.89363339	      1.82143205	     -7.49816012	    -28.51968438	     -1.06459998	     -0.93212110	     81.62130239	    -31.57081199	     45.99546842	    106.80672650	     86.68776953	     76.41698236	    -28.77551862	     34.78843084	    107.69142345	    103.73477018
      1.72000000	    -16.71569229	     -0.75444118	      3.38393669	     -0.39988873	      0.74003090	     -0.68340175	     72.75070031	    -19.74010467	     -1.96491692	     74.96746879	      1.30842916	     25.47100258	      1.56136660	     -7.49818695	     73.59471381	    -11.54520655	     -3.02932559	     74.51606091	      1.30055061	     24.69026626	      1.77910308	     -7.49818695	    -28.13087140	     -1.02005330	     -0.87520843	     78.18260960	    -31.63060047	     45.04302099	    107.05641470	     86.67354373	     72.92231016	    -28.42610970	     33.51969086	    107.78747143	    103.76437260
      1.73000000	    -15.57046803	     -0.68559808	      3.43847836	     -0.39533901	      0.75265889	     -0.68404914	     69.71276487	    -19.62093426	     -2.49585394	     72.97093215	      1.27358302	     25.16675119	      1.49665501	     -7.49820817	     70.61108050	    -11.33903271	     -3.33127940	     72.50702362	      1.26548629	     24.43708546	      1.74193528	     -7.49820817	    -27.97800774	     -1.05957267	     -0.86184850	     74.93871010	    -31.58999398	     44.23928114	    107.19740588	     86.65778124	     69.65600881	    -27.95175875	     32.44271098	    107.82254134	    103.73118765
      1.74000000	    -14.41322182	     -0.66187576	      3.46972210	     -0.39062179	      0.76549287	     -0.68468001	     66.57270192	    -19.42062559	     -3.07807542	     70.81716835	      1.23599275	     24.81502318	      1.38865127	     -7.49822806	     67.57868593	    -11.12018434	     -3.52953435	     70.40478182	      1.22879525	     24.15520260	      1.64851071	     -7.49822806	    -27.81698207	     -1.05869067	     -0.82907341	     71.56414910	    -31.40464268	     43.21236913	    107.26048802	     86.66086373	     66.30045608	    -27.36628878	     31.13431490	    107.90336136	    103.65734527
      1.75000000	    -13.33420900	     -0.78726563	      3.49434228	     -0.38571881	      0.77822490	     -0.68530930	     63.40839440	    -19.10012194	     -3.82527415	     68.52023774	      1.19590375	     24.32913825	      1.13155996	     -7.49825024	     64.67675091	    -10.97161161	     -3.57064327	     68.28627376	      1.19182031	     23.79038455	      1.49861115	     -7.49825024	    -27.54835277	     -0.91659537	     -0.80672707	     68.11146117	    -31.04561862	     41.98710742	    107.27629983	     86.69580337	     62.80357530	    -26.74457868	     29.58550149	    108.16720464	    103.60445129
      1.76000000	    -12.32668149	     -0.99528215	      3.49954859	     -0.38077900	      0.79098812	     -0.68593214	     60.24029386	    -18.62875493	     -4.57639967	     66.02674224	      1.15238405	     23.67422650	      0.89767454	     -7.49826882	     61.83599127	    -10.86519693	     -3.52371048	     66.04975942	      1.15278577	     23.35063606	      1.41066596	     -7.49826882	    -27.24121269	     -0.69022120	     -0.75775043	     64.84538158	    -30.72412875	     41.02747454	    107.25251755	     86.73897758	     59.37769215	    -26.16765970	     28.17044777	    108.54745140	    103.59504874
      1.77000000	    -11.30340408	     -1.21234802	      3.49537596	     -0.37561910	      0.80392468	     -0.68660343	     57.02458187	    -18.15675423	     -5.39987947	     63.43136014	      1.10708608	     22.80227359	      0.56159719	     -7.49829090	     58.93554685	    -10.81428030	     -3.53748817	     63.74906962	      1.11263116	     22.78533280	      1.24443020	     -7.49829090	    -26.97658555	     -0.42695207	     -0.71803136	     61.58912675	    -30.38696408	     40.01927528	    107.28232901	     86.82324347	     55.78857922	    -25.45897223	     26.55246722	    109.05157403	    103.61379576
      1.78000000	    -10.25478373	     -1.36165422	      3.45130458	     -0.37044944	      0.81718992	     -0.68721298	     53.73118190	    -17.63516269	     -6.09127559	     60.62751040	      1.05814967	     21.89782861	      0.40108702	     -7.49830915	     55.85942535	    -10.73142729	     -3.60702405	     61.17667581	      1.06773442	     22.08727370	      1.11589223	     -7.49830915	    -26.82091206	     -0.24815941	     -0.62849676	     58.45976495	    -30.06673987	     39.04748631	    107.29018328	     86.91567783	     52.35067384	    -24.64344089	     25.03293671	    109.50262134	    103.63136623
      1.79000000	     -9.22767135	     -1.54208980	      3.37550777	     -0.36528126	      0.83053091	     -0.68761209	     50.44404093	    -16.99482295	     -6.78913877	     57.68861214	      1.00685622	     20.58781296	     -0.38044284	     -7.49835660	     52.76859722	    -10.69366574	     -3.71151355	     58.47155128	      1.02052109	     20.90048606	      0.42793422	     -7.49835660	    -26.69664426	     -0.08902623	     -0.59205460	     55.19706721	    -29.52013475	     37.71651989	    107.31266036	     87.26028978	     48.78103498	    -23.79487601	     23.27534011	    110.18024890	    103.80304211
      1.80000000	     -7.95208494	     -1.67372038	      3.18931244	     -0.36015981	      0.84443096	     -0.68775756	     46.85387503	    -16.26955777	     -7.37163341	     54.56625668	      0.95236084	     19.53886710	     -0.34923488	     -7.49837910	     49.27812019	    -10.80859437	     -4.09531829	     55.56788287	      0.96984251	     19.85624818	      0.39939920	     -7.49837910	    -26.91861281	     -0.04981514	     -0.36427068	     52.18207143	    -29.10545054	     36.53292381	    107.26443979	     87.41809301	     45.60546921	    -22.89433185	     21.88802023	    110.56850628	    103.85684091
